<svg xmlns="http://www.w3.org/2000/svg" viewBox="0 0 512 512">
  <!-- Background Circle -->
  <circle cx="256" cy="256" r="256" fill="#4A56E2" />
  
  <!-- GitHub Icon (Simplified) -->
  <path
    d="M256 106.667C171.733 106.667 103 175.4 103 259.667c0 67.414 43.45 124.652 103.6 144.822 7.6 1.458 10.443-3.297 10.443-7.362 0-3.7-0.067-13.403-0.133-26.383-42.133 9.153-51.0-20.317-51.0-20.317-6.9-17.55-16.8-22.183-16.8-22.183-13.733-9.39 1.033-9.183 1.033-9.183 15.2 1.067 23.2 15.583 23.2 15.583 13.467 23.117 35.3 16.433 43.9 12.583 1.367-9.75 5.267-16.433 9.567-20.233-33.633-3.8-69-16.8-69-74.8 0-16.534 5.9-30.0 15.567-40.6-1.567-3.8-6.733-19.233 1.467-40.133 0 0 12.667-4.067 41.5 15.467 12.033-3.333 24.9-5.0 37.7-5.067 12.8 0.067 25.7 1.733 37.767 5.067 28.767-19.533 41.4-15.467 41.4-15.467 8.267 20.9 3.067 36.333 1.5 40.133 9.7 10.6 15.567 24.067 15.567 40.6 0 58.134-35.433 70.934-69.2 74.667 5.433 4.7 10.267 13.967 10.267 28.134 0 20.233-0.2 36.533-0.2 41.5 0 4.033 2.767 8.833 10.533 7.333C365.533 384.217 409 326.987 409 259.667 409 175.4 340.267 106.667 256 106.667z"
    fill="white"
  />
  
  <!-- Circle with Score Icon -->
  <circle cx="350" cy="160" r="75" fill="#2FCC71" />
  <path
    d="M342 125v35h35v15h-35v35h-15v-35h-35v-15h35v-35h15z"
    fill="white"
  />
</svg>